PathFileType	4	(X/Y/Z)	C:/Users/beibeiliu/ov580/test_trc\sequence.5_training_dense_left.trc
DataRate	CameraRate	NumFrames	NumMarkers	Units	OrigDataRate	OrigDataStartFrame	OrigNumFrames
120	120	8	19	mm	120	51	100
Frame#	Time	ThumbCMC			ThumbMCP			ThumbIP			ThumbTip			IndexMCP			IndexPIP			IndexTip			MiddleMCP			MiddlePIP			MiddleTip			RingMCP			RingPIP			RingTip			PinkyMCP			PinkyPIP			PinkyTip			BackHand1			BackHand2			BackHand3	
		X0	Y0	Z0	X1	Y1	Z1	X2	Y2	Z2	X3	Y3	Z3	X4	Y4	Z4	X5	Y5	Z5	X6	Y6	Z6	X7	Y7	Z7	X8	Y8	Z8	X9	Y9	Z9	X10	Y10	Z10	X11	Y11	Z11	X12	Y12	Z12	X13	Y13	Z13	X14	Y14	Z14	X15	Y15	Z15	X16	Y16	Z16	X17	Y17	Z17	X18	Y18	Z18	
50	0.416667	-212.44	42.9468	83.2752	-201.004	59.5882	57.2618	-188.877	65.3122	38.9374	-172.253	69.7883	20.9212	-199.27	20.5473	22.5416	-188.488	20.3461	-3.50092	-183.891	29.2927	-22.9723	-169.851	24.1523	22.8433	-155.724	50.5909	17.5715	-157.669	65.5418	44.8263	-154.624	25.2937	36.3594	-148.598	53.9881	44.7284	-164.399	54.0622	69.2961	-142.475	25.2749	50.7892	-142.955	47.5469	56.9781	-163.657	49.1807	72.9914	-176.715	-1.40012	75.2053	-184.98	-1.77655	98.2715	-203.499	7.31792	78.6361	
51	0.425	-217.879	40.5676	85.6163	-211.104	61.478	60.9233	-197.395	65.6773	41.6438	-179.84	70.6957	21.7645	-201.319	23.1282	20.6885	-194.384	31.9236	-1.8853	-184.765	46.5501	-20.881	-176.669	28.0531	23.3639	-167.917	54.8373	16.4907	-171.163	66.5106	52.4519	-161.895	31.8911	35.296	-160.616	58.8429	43.6893	-169.157	57.1311	68.7896	-145.695	28.3418	52.0992	-154.137	53.4652	58.869	-172.059	46.7671	73.3951	-178.867	1.34999	72.8536	-183.817	-0.952788	99.534	-207.741	6.08181	78.1402	
52	0.433333	-219.798	33.9227	85.8114	-218.116	55.1735	65.7525	-208.188	64.8755	37.6626	-191.946	70.6787	24.5935	-203.248	26.8927	23.2993	-197.602	41.6282	3.37475	-190.004	63.1153	-10.0183	-179.766	34.1434	21.7929	-177.687	61.4903	20.6805	-186.672	67.6153	52.9808	-163.664	35.7081	38.7786	-169.5	62.8772	44.7448	-179.368	57.8655	71.2488	-151.696	36.6923	52.0494	-163.088	58.2988	60.2427	-178.934	48.1247	80.1468	-179.211	4.90399	72.0542	-183.528	-1.99653	101.86	-208.197	4.52544	77.3827	
53	0.441667	-226.739	29.1422	89.5705	-226.164	49.0353	61.5395	-218.761	59.4771	39.4574	-203.809	65.903	26.9236	-208.985	20.6041	25.2754	-205.806	36.531	3.31835	-203.722	55.1208	-8.89819	-190.971	33.2838	22.9147	-188.609	62.7973	26.1	-195.637	62.7457	57.1189	-175.536	37.8604	36.0035	-178.188	61.9299	44.834	-190.408	58.2605	68.6671	-160.954	37.199	49.6435	-173.215	58.4153	56.594	-186.756	49.2625	76.0568	-177.902	1.21625	77.1728	-184.593	-2.16137	100.82	-210.085	0.131365	79.1832	
54	0.45	-229.888	19.9411	86.4722	-231.413	38.8487	64.9366	-226.65	48.9507	40.8914	-212.741	56.7667	26.5475	-212.396	4.81802	27.377	-210.897	14.1025	-0.0886246	-210.583	27.5341	-15.3592	-191.938	23.4001	25.9986	-198.581	53.6233	27.014	-206.205	54.3663	57.6944	-177.308	31.3932	38.3668	-186.442	57.5023	46.7118	-197.807	50.7407	68.8347	-166.673	35.7587	48.2378	-180.229	53.8522	54.9175	-192.299	42.6643	73.9903	-179.071	-2.2082	77.2377	-183.195	-1.94729	105.147	-210.191	-4.97617	84.2967	
55	0.458333	-231.273	11.3722	89.8128	-237.246	28.5703	62.3559	-230.754	35.7911	42.1581	-221.716	46.3278	21.221	-214.979	-11.82	34.1878	-214.289	-10.0445	6.56924	-214.779	-2.23756	-16.027	-200.462	10.0909	26.9029	-207.961	40.428	23.8281	-210.277	45.9616	53.7264	-186.48	18.411	38.0202	-196.955	47.7706	44.7235	-204.72	42.5521	68.1368	-171.083	26.527	47.4911	-187.089	44.2475	49.9105	-196.757	36.0741	76.8188	-184.771	-7.36711	80.2712	-188.497	-7.59456	105.245	-210.621	-14.8185	91.279	
56	0.466667	-236.759	4.20615	90.0313	-243.592	19.9288	63.4306	-240.713	26.213	40.1584	-231.233	34.7815	21.6263	-220.947	-24.7329	36.4384	-221.591	-25.0463	11.2884	-223.355	-18.2779	-10.8306	-206.182	-0.0657704	26.6559	-213.019	29.414	24.4077	-216.291	34.5699	55.7916	-191.815	10.226	38.7634	-203.884	37.9078	43.1609	-212.198	32.2416	68.5158	-178.53	15.8493	48.8019	-193.33	36.1339	47.6383	-202.663	31.6095	74.4985	-183.589	-12.8059	79.1105	-187.538	-10.2153	110.73	-214.736	-18.9415	90.7937	
57	0.475	-238.675	1.69776	96.6186	-245.571	13.8948	68.9576	-240.997	18.5324	42.9355	-233.97	25.478	25.0193	-224.513	-28.6991	36.5806	-222.658	-26.3517	11.8659	-228.531	-12.9307	-9.36897	-208.94	-5.74044	28.8309	-216.984	20.1915	21.6714	-222.911	28.2097	56.2636	-198.345	9.01303	36.2677	-211.764	31.8063	41.2518	-216.863	30.0097	66.0794	-182.532	14.8582	48.5768	-199.213	35.6982	51.4437	-208.712	30.4634	74.789	-187.535	-12.2748	83.4769	-194.068	-12.6752	110.517	-214.971	-21.8793	96.2802	
